<svg width="456" height="415" viewBox="0 0 456 415" fill="none" xmlns="http://www.w3.org/2000/svg">
<g clip-path="url(#clip0_1_1430)">
<path d="M329.942 267.736L358.834 256.683L351.566 237.942L303.9 256.178L322.348 303.77L341.122 296.587L329.942 267.736Z" fill="#0555C8"/>
<circle cx="378.62" cy="304.325" r="9.10025" transform="rotate(50.7549 378.62 304.325)" fill="white"/>
<circle cx="423.335" cy="311.513" r="9.10025" transform="rotate(50.7549 423.335 311.513)" fill="#C31B62"/>
<path d="M91.4644 331.102L76.1667 352.889L63.9498 344.311C54.0968 337.392 40.4388 335.65 33.3827 345.699C28.2848 352.959 27.5246 365.079 42.1544 375.351L53.6305 383.409L38.3328 405.196L26.8567 397.138C-0.463808 377.955 -1.50039 349.041 11.5906 330.397C24.6816 311.753 52.2157 303.544 79.2421 322.52L91.4589 331.099L91.4644 331.102Z" fill="#B4A4F5"/>
</g>
<defs>
<clipPath id="clip0_1_1430">
<rect width="455" height="415" fill="white" transform="translate(0.5)"/>
</clipPath>
</defs>
</svg>
